<?xml version="1.0" encoding="UTF-8"?>
<svg id="Capa_1" xmlns="http://www.w3.org/2000/svg" viewBox="0 0 21.13 20.76">
  <defs>
    <style>
      .cls-1 {
        fill: #805f74;
      }

      .cls-2 {
        isolation: isolate;
      }

      .cls-3 {
        fill: #f5f6dd;
      }
    </style>
  </defs>
  <rect class="cls-3" y=".27" width="20" height="20" rx="5.26" ry="5.26"/>
  <g class="cls-2">
    <path class="cls-1" d="M2.79,15.4l3.66-11.25h2.19l3.65,11.25h-2.04l-2.7-8.77-2.72,8.77h-2.03ZM4.41,12.85l.52-1.69h5.09l.5,1.69h-6.11Z"/>
    <path class="cls-1" d="M14.56,6.23c-.35,0-.64-.11-.86-.35s-.33-.52-.33-.88.11-.65.33-.88c.22-.23.5-.35.86-.35s.64.12.87.35c.22.23.34.52.34.88s-.11.65-.34.88c-.22.23-.51.35-.87.35ZM13.59,15.4V7.35h1.93v8.05h-1.93Z"/>
  </g>
</svg>