<?xml version="1.0" encoding="UTF-8"?>
<svg xmlns="http://www.w3.org/2000/svg" version="1.1" viewBox="0 0 123.11 129.86">
  <defs>
    <style>
      .cls-1 {
        fill: #805f74;
      }

      .cls-2 {
        fill: none;
        stroke: #f5f5dd;
        stroke-miterlimit: 10;
        stroke-width: .5px;
      }

      .cls-3 {
        display: none;
      }
    </style>
  </defs>
  <!-- Generator: Adobe Illustrator 28.6.0, SVG Export Plug-In . SVG Version: 1.2.0 Build 709)  -->
  <g>
    <g id="Capa_1">
      <rect class="cls-1" width="123.11" height="129.86"/>
    </g>
    <g id="ubi" class="cls-3">
      <path class="cls-2" d="M48.84,68.35c2.89,5.71,12.8,22.18,12.8,22.18,0,0,9.9-16.47,12.81-22.18,17.12-33.54-42.84-33.98-25.61,0ZM61.51,70.19c-6.28,0-11.38-5.1-11.38-11.39s5.1-11.38,11.38-11.38,11.39,5.1,11.39,11.38-5.1,11.39-11.39,11.39Z"/>
    </g>
    <g id="mail" class="cls-3">
      <rect class="cls-2" x="31.18" y="39.21" width="60.11" height="37.61"/>
      <polyline class="cls-2" points="31.18 39.21 61.23 61.39 91.29 39.21"/>
    </g>
    <g id="telefono" class="cls-3">
      <path class="cls-2" d="M46.44,32.68l5.79,13.82c.75,2.04-3.75,3.86-4.61,6.75.64,5.17,10.12,14.45,16.29,16.39,1.31.32,4.9-4.9,5.89-4.71l14.68,5.68c-10.12,38.15-77.17-27.57-38.04-37.93Z"/>
    </g>
    <g id="illus">
      <rect class="cls-2" x="27.6" y="30.72" width="68.9" height="68.9" rx="18.11" ry="18.11"/>
      <polygon class="cls-2" points="40.81 78.82 46.92 78.82 49.38 71.75 59.99 71.75 62.67 78.82 69.31 78.82 58.49 48.39 50.77 48.39 40.81 78.82"/>
      <polygon class="cls-2" points="51.09 65.85 58.17 65.85 54.63 54.07 51.09 65.85"/>
      <rect class="cls-2" x="72.42" y="56" width="6.43" height="22.82"/>
      <circle class="cls-2" cx="75.51" cy="49.73" r="3.33"/>
    </g>
  </g>
</svg>