<?xml version="1.0" encoding="UTF-8"?>
<svg id="Capa_3" xmlns="http://www.w3.org/2000/svg" viewBox="0 0 21.13 20.76">
  <defs>
    <style>
      .cls-1 {
        fill: #805f74;
      }

      .cls-2 {
        isolation: isolate;
      }

      .cls-3 {
        fill: #f5f6dd;
      }
    </style>
  </defs>
  <rect class="cls-3" x=".37" width="20.76" height="20.76" rx="5.46" ry="5.46"/>
  <g class="cls-2">
    <path class="cls-1" d="M4.68,15.59V3.72h2.04v11.87h-2.04Z"/>
    <path class="cls-1" d="M12.14,15.79c-.69,0-1.32-.19-1.86-.58s-.98-.91-1.3-1.59c-.32-.67-.48-1.43-.48-2.28s.16-1.62.48-2.3c.32-.67.75-1.2,1.31-1.58.56-.38,1.18-.58,1.88-.58.55,0,1.04.12,1.45.35.41.23.74.55,1,.96V3.38h2.04v12.21h-1.81l-.23-1.17c-.16.24-.35.46-.57.68-.22.21-.49.38-.8.51-.31.12-.68.19-1.1.19ZM12.62,13.79c.4,0,.76-.1,1.06-.31.31-.21.55-.5.72-.86.17-.37.26-.79.26-1.26s-.09-.91-.26-1.28c-.17-.37-.41-.66-.72-.87-.31-.21-.67-.31-1.07-.31s-.73.1-1.04.31c-.31.21-.56.5-.73.87-.18.37-.26.79-.26,1.26s.09.9.26,1.27c.18.37.42.66.73.87.31.21.66.31,1.06.31Z"/>
  </g>
</svg>