<?xml version="1.0" encoding="UTF-8"?>
<svg id="Capa_2" xmlns="http://www.w3.org/2000/svg" viewBox="0 0 21.13 20.76">
  <defs>
    <style>
      .cls-1 {
        fill: #805f74;
      }

      .cls-2 {
        isolation: isolate;
      }

      .cls-3 {
        fill: #f5f6dd;
      }
    </style>
  </defs>
  <rect class="cls-3" x=".75" y=".38" width="20" height="20" rx="5.26" ry="5.26"/>
  <g class="cls-2">
    <path class="cls-1" d="M4.07,15.07V4.53h3.52c.76,0,1.39.14,1.88.43.5.29.87.68,1.11,1.17.25.5.37,1.06.37,1.68,0,.58-.12,1.12-.35,1.61-.24.49-.6.89-1.1,1.2-.5.31-1.13.46-1.91.46h-1.72v3.99h-1.81ZM5.88,9.44h1.59c.58,0,1-.15,1.25-.44.25-.3.38-.69.38-1.18s-.13-.91-.38-1.2c-.25-.29-.67-.43-1.25-.43h-1.59v3.25Z"/>
    <path class="cls-1" d="M15.02,15.25c-.61,0-1.14-.11-1.59-.33s-.82-.52-1.08-.91c-.26-.39-.42-.83-.46-1.33h1.81c.04.19.12.36.23.52.11.16.25.28.44.37.18.09.4.14.64.14s.44-.04.59-.11c.15-.08.27-.18.34-.3.08-.13.11-.26.11-.4,0-.21-.06-.37-.17-.48-.11-.11-.27-.2-.48-.27s-.46-.14-.75-.21c-.3-.08-.61-.17-.91-.27-.3-.1-.58-.23-.82-.39-.25-.16-.44-.36-.59-.61-.15-.25-.22-.55-.22-.93,0-.45.11-.86.32-1.21.21-.36.53-.64.94-.85.41-.21.9-.32,1.47-.32.81,0,1.46.21,1.93.62.47.42.75.98.84,1.69h-1.7c-.05-.23-.17-.41-.35-.55-.18-.14-.43-.2-.73-.2s-.55.07-.72.2c-.17.13-.25.3-.25.5,0,.14.06.27.17.38.11.11.27.2.48.28.21.08.45.15.74.22.51.12.96.26,1.35.41.39.15.7.37.92.66.23.29.34.7.34,1.23,0,.48-.1.91-.33,1.29-.23.38-.56.67-.98.88-.42.21-.93.32-1.51.32Z"/>
  </g>
</svg>